<svg version='1.1' xmlns='http://www.w3.org/2000/svg' xmlns:xlink='http://www.w3.org/1999/xlink'  viewBox="0 0 24 24" width="100%" height="100%" fill="green"><path d="M21,14.64l3-10A.5.5,0,0,0,23.5,4H4.63L4.26,2.54A2,2,0,0,0,2.31,1H.5a.5.5,0,0,0,0,1H2.31a1,1,0,0,1,1,.78L6.74,16.46A2,2,0,0,0,8.69,18H20.5a.5.5,0,0,0,0-1H8.69a1,1,0,0,1-1-.78L7.4,15H20.5A.5.5,0,0,0,21,14.64ZM7.15,14,4.88,5H22.83l-2.7,9Z"></path><path d="M9 19a2 2 0 1 0 2 2A2 2 0 0 0 9 19m0 3a1 1 0 1 1 1 -1A1 1 0 0 1 9 22"></path><path d="M19 19a2 2 0 1 0 2 2A2 2 0 0 0 19 19m0 3a1 1 0 1 1 1 -1A1 1 0 0 1 19 22"></path></svg>